<svg width="393" height="287" viewBox="0 0 393 287" fill="none" xmlns="http://www.w3.org/2000/svg">
<rect width="393" height="287" fill="url(#paint0_linear_30_505)"/>
<g opacity="0.7">
<g opacity="0.3">
<path d="M206.588 147.791L198.218 160.78L196.373 159.551L204.743 146.562C203.628 145.04 203.685 142.557 205.048 140.441C206.684 137.888 209.571 136.863 211.482 138.136C213.406 139.418 213.635 142.518 211.986 145.062C210.622 147.178 208.406 148.222 206.588 147.791Z" fill="white"/>
</g>
<g opacity="0.3" clip-path="url(#clip0_30_505)">
<path d="M314.44 116.549L320.67 128.206L319.014 129.121L312.784 117.464C311.206 117.701 309.392 116.654 308.377 114.755C307.148 112.472 307.557 109.848 309.272 108.901C310.999 107.947 313.386 109.026 314.603 111.316C315.618 113.215 315.494 115.333 314.44 116.549Z" fill="white"/>
</g>
<g opacity="0.3" clip-path="url(#clip1_30_505)">
<path d="M131.313 156.467C132.065 155.75 133.241 155.792 133.943 156.554L136.063 158.854L128.822 165.752L126.702 163.451C126 162.689 126.035 161.494 126.787 160.778L131.313 156.467ZM129.85 174.245C129.023 173.348 128.782 172.044 129.233 170.902L130.004 168.925C130.353 168.038 130.892 167.237 131.576 166.585L136.701 161.702C137.386 161.05 138.206 160.557 139.1 160.259L141.09 159.606C142.193 159.269 143.505 159.552 144.332 160.449C145.095 161.278 145.339 162.406 145.07 163.429C146.187 163.315 147.338 163.71 148.117 164.556C149.05 165.568 149.348 166.872 149.021 168.015C150.26 167.861 151.52 168.248 152.357 169.157C153.29 170.169 153.588 171.473 153.309 172.668C154.5 172.462 155.76 172.849 156.645 173.81C157.53 174.77 157.829 176.074 157.549 177.269C158.74 177.063 160 177.45 160.886 178.411C162.29 179.935 162.214 182.33 160.714 183.758L151.663 192.381C150.163 193.809 147.808 193.731 146.404 192.207C145.518 191.246 145.221 189.941 145.497 188.75C144.309 188.952 143.048 188.566 142.163 187.605C141.278 186.645 140.981 185.34 141.257 184.148C140.069 184.351 138.808 183.965 137.875 182.953C137.038 182.044 136.74 180.739 136.969 179.495C135.829 179.75 134.568 179.364 133.635 178.351C132.855 177.506 132.543 176.313 132.725 175.189C131.707 175.392 130.613 175.073 129.85 174.245ZM139.904 175.932L145.335 170.759C145.833 170.285 145.858 169.483 145.392 168.977C144.926 168.471 144.137 168.444 143.639 168.919L138.208 174.092C137.71 174.566 137.684 175.368 138.151 175.874C138.617 176.381 139.406 176.407 139.904 175.932ZM144.993 181.454C144.495 181.928 144.469 182.73 144.936 183.236C145.402 183.742 146.191 183.769 146.689 183.294L152.12 178.121C152.617 177.647 152.643 176.845 152.177 176.338C151.71 175.832 150.921 175.806 150.423 176.28L144.993 181.454Z" fill="white"/>
</g>
<g opacity="0.3" clip-path="url(#clip2_30_505)">
<path d="M343.672 185.797C345.148 186.183 346.029 187.706 345.651 189.2L344.511 193.713L330.307 190.003L331.448 185.49C331.826 183.995 333.319 183.093 334.795 183.478L343.672 185.797ZM320.706 198.041C321.15 196.281 322.558 194.941 324.317 194.607L327.353 194.017C328.718 193.757 330.127 193.804 331.47 194.155L341.523 196.781C342.866 197.132 344.121 197.781 345.196 198.678L347.575 200.683C348.863 201.813 349.556 203.702 349.112 205.462C348.701 207.086 347.51 208.29 346.042 208.761C347.067 210.087 347.495 211.858 347.076 213.516C346.574 215.502 345.212 216.914 343.55 217.406C344.722 218.854 345.246 220.759 344.795 222.541C344.293 224.527 342.931 225.939 341.243 226.532C342.441 227.879 342.965 229.784 342.489 231.668C342.012 233.552 340.65 234.964 338.962 235.557C340.16 236.904 340.684 238.809 340.208 240.693C339.452 243.682 336.454 245.485 333.513 244.716L315.759 240.079C312.818 239.31 311.046 236.262 311.802 233.272C312.278 231.388 313.642 229.977 315.323 229.382C314.133 228.037 313.606 226.131 314.082 224.247C314.559 222.363 315.923 220.952 317.604 220.357C316.413 219.012 315.887 217.106 316.389 215.121C316.839 213.338 318.204 211.927 319.911 211.23C318.694 209.987 318.168 208.081 318.67 206.096C319.089 204.438 320.304 203.095 321.827 202.435C320.771 201.305 320.295 199.666 320.706 198.041ZM326.609 212.126L337.261 214.909C338.238 215.164 339.242 214.561 339.493 213.568C339.744 212.575 339.15 211.554 338.173 211.299L327.521 208.516C326.545 208.261 325.54 208.865 325.29 209.858C325.039 210.85 325.632 211.871 326.609 212.126ZM323.872 222.956C322.895 222.701 321.891 223.305 321.64 224.297C321.389 225.29 321.983 226.311 322.959 226.566L333.612 229.349C334.588 229.604 335.592 229 335.843 228.008C336.094 227.015 335.5 225.994 334.524 225.739L323.872 222.956Z" fill="white"/>
</g>
<g opacity="0.3" clip-path="url(#clip3_30_505)">
<path d="M86.3912 109.575C87.3645 110.145 87.6942 111.403 87.1355 112.389L85.4487 115.365L76.0813 109.878L77.7681 106.902C78.3268 105.916 79.5632 105.575 80.5365 106.145L86.3912 109.575ZM67.6992 113.659C68.3571 112.498 69.6175 111.829 70.9313 111.945L73.2027 112.136C74.2226 112.225 75.2148 112.542 76.1003 113.06L82.7307 116.945C83.6162 117.463 84.3818 118.177 84.9705 119.03L86.2712 120.932C86.9662 121.993 87.0919 123.474 86.4341 124.635C85.8268 125.706 84.7466 126.322 83.6129 126.361C84.0834 127.509 84.043 128.853 83.4231 129.947C82.6809 131.256 81.439 131.986 80.1629 132.001C80.7136 133.265 80.7158 134.724 80.0495 135.899C79.3073 137.209 78.0654 137.938 76.7513 138.021C77.34 139.218 77.3422 140.676 76.6379 141.918C75.9337 143.161 74.6917 143.89 73.3777 143.973C73.9664 145.17 73.9686 146.628 73.2643 147.871C72.1468 149.842 69.6667 150.52 67.7274 149.384L56.0181 142.524C54.078 141.388 53.412 138.867 54.5295 136.895C55.2337 135.653 56.4771 134.924 57.7868 134.839C57.2025 133.644 57.1989 132.185 57.9031 130.943C58.6073 129.7 59.8508 128.972 61.1604 128.887C60.5761 127.692 60.5725 126.233 61.3147 124.924C61.981 123.748 63.2244 123.02 64.572 122.868C63.9497 121.74 63.9461 120.281 64.6883 118.971C65.3082 117.878 66.4317 117.168 67.6422 117.005C67.1117 115.991 67.092 114.73 67.6992 113.659ZM69.1555 124.849L76.1811 128.965C76.8251 129.342 77.6556 129.115 78.0267 128.46C78.3978 127.806 78.1745 126.961 77.5305 126.584L70.505 122.468C69.8609 122.091 69.0304 122.318 68.6593 122.973C68.2882 123.627 68.5115 124.472 69.1555 124.849ZM65.1072 131.992C64.4632 131.615 63.6326 131.842 63.2615 132.496C62.8904 133.151 63.1137 133.995 63.7577 134.373L70.7833 138.489C71.4273 138.866 72.2579 138.639 72.629 137.984C73 137.329 72.7768 136.485 72.1327 136.108L65.1072 131.992Z" fill="white"/>
</g>
<g opacity="0.3" clip-path="url(#clip4_30_505)">
<path d="M39.7353 114.188L33.6585 103.487C33.5242 103.251 33.4878 102.97 33.5573 102.706C33.6268 102.442 33.7966 102.217 34.0292 102.081L48.0631 93.8429C48.2957 93.7064 48.5722 93.6694 48.8316 93.74C49.0911 93.8107 49.3123 93.9833 49.4466 94.2198L57.5491 108.488C57.952 109.197 58.0612 110.04 57.8526 110.832C57.6441 111.623 57.1348 112.298 56.437 112.708L44.1573 119.915C43.4594 120.325 42.6301 120.436 41.8517 120.224C41.0733 120.012 40.4096 119.494 40.0067 118.785L38.9939 117.001L53.0278 108.764L54.0406 110.547C54.1749 110.784 54.3961 110.956 54.6556 111.027C54.9151 111.098 55.1915 111.061 55.4242 110.924C55.6568 110.788 55.8265 110.563 55.896 110.299C55.9656 110.035 55.9292 109.754 55.7949 109.517L53.7692 105.95L39.7353 114.188Z" fill="white"/>
</g>
<g opacity="0.3" clip-path="url(#clip5_30_505)">
<path d="M155.621 143.408L166.208 126.834C166.442 126.468 166.81 126.211 167.23 126.121C167.65 126.03 168.089 126.112 168.449 126.35L190.185 140.702C190.546 140.94 190.798 141.313 190.887 141.741C190.977 142.168 190.895 142.614 190.662 142.98L176.545 165.079C175.843 166.178 174.741 166.948 173.48 167.22C172.219 167.493 170.904 167.245 169.823 166.531L150.804 153.974C149.723 153.26 148.965 152.139 148.697 150.857C148.429 149.575 148.673 148.238 149.375 147.139L151.14 144.377L172.876 158.728L171.111 161.491C170.877 161.857 170.796 162.303 170.885 162.73C170.975 163.157 171.227 163.531 171.587 163.769C171.948 164.007 172.386 164.089 172.806 163.999C173.227 163.908 173.594 163.651 173.828 163.285L177.357 157.76L155.621 143.408Z" fill="white"/>
</g>
<g opacity="0.3" clip-path="url(#clip6_30_505)">
<path d="M329.509 160.94L319.338 146.174C319.113 145.848 319.025 145.444 319.093 145.052C319.161 144.659 319.38 144.311 319.701 144.082L339.065 130.295C339.386 130.066 339.784 129.977 340.17 130.046C340.555 130.115 340.899 130.337 341.123 130.664L354.685 150.351C355.359 151.33 355.623 152.542 355.419 153.719C355.215 154.896 354.559 155.942 353.596 156.628L336.652 168.692C335.689 169.377 334.498 169.646 333.34 169.439C332.182 169.231 331.153 168.564 330.479 167.585L328.783 165.124L348.148 151.337L349.843 153.798C350.068 154.124 350.411 154.347 350.797 154.416C351.183 154.485 351.58 154.395 351.901 154.167C352.222 153.938 352.441 153.59 352.509 153.197C352.577 152.805 352.489 152.401 352.264 152.075L348.874 147.153L329.509 160.94Z" fill="white"/>
</g>
<g opacity="0.3">
<path d="M48.5804 134.609L43.6625 129.609C43.4236 129.41 43.1203 129.308 42.8116 129.324C42.503 129.339 42.211 129.471 41.9924 129.693C41.7739 129.915 41.6445 130.212 41.6293 130.526C41.6142 130.839 41.7144 131.148 41.9104 131.391L42.141 131.609L33.6728 138.078L27.7866 139.281C27.5508 139.33 27.3328 139.443 27.1565 139.609L14.1545 152.844C13.8088 153.191 13.5344 153.605 13.347 154.061C13.1597 154.517 13.0632 155.006 13.0632 155.5C13.0632 155.994 13.1597 156.483 13.347 156.939C13.5344 157.395 13.8088 157.809 14.1545 158.156L20.5018 164.609C20.8435 164.961 21.2503 165.24 21.6988 165.43C22.1473 165.621 22.6285 165.719 23.1145 165.719C23.6005 165.719 24.0817 165.621 24.5302 165.43C24.9787 165.24 25.3856 164.961 25.7272 164.609L38.7445 151.391C38.908 151.211 39.0197 150.99 39.0672 150.75L40.2506 144.766L46.6132 136.156L46.8284 136.391C47.0634 136.622 47.3775 136.751 47.7044 136.751C48.0313 136.751 48.3454 136.622 48.5804 136.391C48.8113 136.154 48.9408 135.834 48.9408 135.5C48.9408 135.166 48.8113 134.846 48.5804 134.609ZM22.2385 162.844L15.8912 156.391C15.775 156.274 15.6828 156.136 15.6198 155.983C15.5568 155.83 15.5244 155.666 15.5244 155.5C15.5244 155.334 15.5568 155.17 15.6198 155.017C15.6828 154.864 15.775 154.726 15.8912 154.609L16.967 153.516L25.0663 161.75L23.9905 162.844C23.7574 163.078 23.4426 163.21 23.1145 163.21C22.7864 163.21 22.4716 163.078 22.2385 162.844ZM38.1144 143.5C38.0086 143.649 37.9352 143.82 37.8992 144L36.7312 149.891L35.4095 151.234L27.3102 143L28.6319 141.656L34.4259 140.469C34.6032 140.432 34.7709 140.358 34.9177 140.25L43.893 133.406L44.8458 134.375L38.1144 143.5Z" fill="white"/>
</g>
<g opacity="0.3" clip-path="url(#clip7_30_505)">
<path d="M53.903 152.769L45.0546 158.018C44.6858 158.289 44.4294 158.69 44.3353 159.143C44.2413 159.596 44.3162 160.068 44.5456 160.467C44.7749 160.867 45.1424 161.166 45.5764 161.305C46.0104 161.445 46.4799 161.415 46.8936 161.222L47.2865 160.971L53.1761 175.658L52.6558 184.633C52.6351 184.993 52.7125 185.351 52.8793 185.669L66.5488 209.458C66.9059 210.089 67.3826 210.641 67.9512 211.083C68.5198 211.526 69.1691 211.849 69.8614 212.034C70.5537 212.219 71.2753 212.263 71.9844 212.162C72.6934 212.062 73.3758 211.819 73.992 211.449L85.4119 204.675C86.0324 204.312 86.5758 203.828 87.0108 203.249C87.4457 202.671 87.7634 202.011 87.9456 201.307C88.1277 200.603 88.1706 199.87 88.0719 199.149C87.9731 198.428 87.7346 197.734 87.3702 197.108L73.7284 173.303C73.5385 172.999 73.2697 172.754 72.9518 172.595L65.0108 168.639L55.333 156.198L55.742 155.974C56.1538 155.72 56.4524 155.314 56.5749 154.841C56.6975 154.367 56.6342 153.864 56.3986 153.437C56.1531 153.014 55.7532 152.706 55.2859 152.581C54.8185 152.456 54.3215 152.524 53.903 152.769ZM83.589 201.498L72.1691 208.272C71.9626 208.397 71.7338 208.478 71.4959 208.512C71.2581 208.546 71.016 208.532 70.7838 208.469C70.5515 208.407 70.3338 208.299 70.1432 208.15C69.9525 208.002 69.7929 207.816 69.6734 207.605L68.5442 205.637L83.1164 196.993L84.2456 198.961C84.4871 199.387 84.5536 199.892 84.4307 200.367C84.3077 200.842 84.0052 201.249 83.589 201.498ZM62.437 171.258C62.6064 171.467 62.8178 171.637 63.0569 171.757L70.8723 175.656L72.2596 178.074L57.6874 186.717L56.3001 184.299L56.8077 175.464C56.8228 175.193 56.7812 174.922 56.6855 174.669L50.4606 159.107L52.175 158.09L62.437 171.258Z" fill="white"/>
</g>
<g opacity="0.3" clip-path="url(#clip8_30_505)">
<path d="M340.951 93.4767L334.217 101.326C333.953 101.702 333.836 102.166 333.889 102.625C333.943 103.085 334.162 103.508 334.505 103.812C334.848 104.116 335.29 104.28 335.745 104.271C336.2 104.262 336.636 104.082 336.967 103.764L337.26 103.398L347.46 115.401L349.789 124.074C349.882 124.421 350.068 124.736 350.326 124.982L370.759 143.08C371.296 143.561 371.921 143.93 372.599 144.164C373.277 144.398 373.994 144.493 374.708 144.444C375.422 144.394 376.12 144.201 376.76 143.875C377.4 143.55 377.97 143.098 378.438 142.547L387.128 132.417C387.602 131.871 387.965 131.235 388.195 130.546C388.425 129.857 388.519 129.128 388.47 128.402C388.421 127.676 388.231 126.967 387.911 126.316C387.591 125.665 387.146 125.085 386.604 124.61L366.193 106.488C365.917 106.262 365.585 106.117 365.234 106.07L356.466 104.903L343.384 96.2605L343.701 95.9155C344.011 95.5413 344.167 95.059 344.134 94.5706C344.101 94.0823 343.883 93.6259 343.525 93.298C343.16 92.9769 342.684 92.8155 342.202 92.8489C341.72 92.8824 341.27 93.108 340.951 93.4767ZM384.402 129.999L375.711 140.129C375.555 140.315 375.364 140.466 375.149 140.576C374.935 140.685 374.701 140.75 374.461 140.767C374.221 140.783 373.981 140.751 373.754 140.673C373.526 140.594 373.317 140.47 373.137 140.308L371.448 138.81L382.538 125.884L384.226 127.382C384.589 127.707 384.811 128.164 384.844 128.654C384.877 129.144 384.718 129.628 384.402 129.999ZM354.851 108.221C355.077 108.364 355.331 108.457 355.595 108.492L364.226 109.647L366.301 111.487L355.212 124.413L353.137 122.573L350.839 114.036C350.769 113.774 350.644 113.531 350.474 113.323L339.682 100.6L340.987 99.0796L354.851 108.221Z" fill="white"/>
</g>
<g opacity="0.3" clip-path="url(#clip9_30_505)">
<path d="M278.877 134.952L275.796 131.985C275.647 131.867 275.46 131.81 275.272 131.825C275.084 131.839 274.908 131.924 274.779 132.064C274.649 132.203 274.575 132.386 274.571 132.578C274.566 132.77 274.633 132.956 274.756 133.101L274.9 133.23L269.84 137.319L266.269 138.152C266.126 138.185 265.995 138.258 265.89 138.362L258.174 146.654C257.969 146.872 257.808 147.129 257.701 147.41C257.594 147.691 257.543 147.992 257.551 148.293C257.559 148.594 257.626 148.891 257.748 149.166C257.87 149.441 258.044 149.689 258.26 149.895L262.237 153.725C262.451 153.933 262.704 154.097 262.981 154.205C263.257 154.314 263.552 154.366 263.849 154.358C264.145 154.349 264.437 154.281 264.708 154.158C264.978 154.034 265.222 153.857 265.425 153.637L273.15 145.354C273.247 145.242 273.312 145.105 273.337 144.958L273.961 141.288L277.703 135.929L277.838 136.068C277.985 136.205 278.178 136.279 278.378 136.273C278.577 136.268 278.767 136.184 278.906 136.039C279.043 135.89 279.117 135.693 279.112 135.489C279.106 135.286 279.022 135.093 278.877 134.952ZM263.268 152.618L259.291 148.789C259.218 148.72 259.16 148.637 259.119 148.544C259.078 148.452 259.055 148.353 259.053 148.252C259.05 148.15 259.067 148.05 259.103 147.955C259.139 147.861 259.193 147.775 259.262 147.702L259.9 147.017L264.975 151.904L264.337 152.589C264.198 152.736 264.008 152.822 263.808 152.827C263.608 152.833 263.414 152.758 263.268 152.618ZM272.638 140.552C272.575 140.644 272.533 140.75 272.514 140.86L271.898 144.473L271.113 145.315L266.039 140.428L266.823 139.586L270.338 138.764C270.446 138.739 270.547 138.691 270.635 138.623L275.998 134.297L276.595 134.872L272.638 140.552Z" fill="white"/>
</g>
<g opacity="0.3" clip-path="url(#clip10_30_505)">
<path d="M173.794 110.826C173.267 110.682 172.848 110.258 172.701 109.724L171.598 105.759L168.695 108.632C168.301 109.023 167.73 109.177 167.203 109.034C167.063 108.995 166.927 108.938 166.804 108.86L162.865 106.439L161.36 112.148C161.236 112.619 161.439 113.115 161.853 113.347L168.135 116.919C168.432 117.085 168.766 117.176 169.102 117.182L176.305 117.285C176.778 117.29 177.198 116.964 177.322 116.496L178.826 110.787L174.225 110.878C174.08 110.883 173.934 110.864 173.794 110.826ZM181.37 109.033L180.634 105.298C180.589 105.073 180.411 104.901 180.188 104.871L172.122 103.77L173.695 109.427C173.76 109.661 173.972 109.822 174.21 109.818L180.857 109.687C181.19 109.678 181.433 109.366 181.37 109.033ZM163.999 100.767L161.524 103.626C161.303 103.882 161.363 104.277 161.645 104.45L167.337 107.942C167.541 108.067 167.803 108.035 167.975 107.865L172.122 103.77L164.592 100.622C164.383 100.538 164.148 100.594 163.999 100.767Z" fill="white"/>
</g>
<g opacity="0.3" clip-path="url(#clip11_30_505)">
<path d="M112.669 144.04C111.922 144.398 111.032 144.33 110.352 143.865L105.29 140.436L104.673 146.585C104.59 147.421 104.075 148.162 103.328 148.519C103.129 148.615 102.917 148.683 102.7 148.716L95.8291 149.854L99.5354 157.853C99.8415 158.513 100.55 158.877 101.25 158.733L111.932 156.588C112.435 156.484 112.908 156.257 113.302 155.931L121.74 148.919C122.293 148.457 122.468 147.67 122.164 147.014L118.458 139.016L113.217 143.673C113.054 143.822 112.868 143.945 112.669 144.04ZM119.729 134.498L115.312 130.969C115.046 130.756 114.675 130.736 114.389 130.922L103.999 137.65L111.219 142.543C111.519 142.746 111.917 142.72 112.189 142.48L119.759 135.751C120.136 135.412 120.12 134.816 119.729 134.498ZM91.7287 142.264L91.593 147.974C91.5813 148.485 92.0269 148.875 92.5183 148.794L102.441 147.143C102.797 147.083 103.07 146.787 103.107 146.423L103.999 137.65L92.2771 141.513C91.9555 141.623 91.7366 141.92 91.7287 142.264Z" fill="white"/>
</g>
<g opacity="0.3" clip-path="url(#clip12_30_505)">
<path d="M255.842 120.328C255.292 120.396 254.739 120.162 254.403 119.72L251.89 116.452L250.222 120.235C249.996 120.75 249.514 121.112 248.964 121.179C248.818 121.197 248.669 121.196 248.524 121.17L243.912 120.423L244.615 126.311C244.673 126.797 245.049 127.18 245.524 127.239L252.772 128.161C253.114 128.203 253.462 128.16 253.781 128.037L260.608 125.379C261.056 125.203 261.33 124.739 261.273 124.256L260.57 118.369L256.267 120.212C256.132 120.272 255.988 120.31 255.842 120.328ZM262.316 115.763L260.235 112.57C260.11 112.377 259.877 112.285 259.656 112.342L251.645 114.401L255.229 119.064C255.378 119.257 255.637 119.326 255.86 119.231L262.076 116.568C262.386 116.433 262.499 116.05 262.316 115.763ZM242.874 114.711L241.604 118.318C241.491 118.641 241.694 118.985 242.024 119.038L248.685 120.113C248.924 120.151 249.16 120.021 249.258 119.797L251.645 114.401L243.379 114.35C243.151 114.351 242.95 114.493 242.874 114.711Z" fill="white"/>
</g>
<g opacity="0.3">
<path d="M34.4989 185.297L40.9959 186.919C42.2954 187.243 42.9489 188.341 42.6297 189.662L42.0978 191.863L13.9439 184.833L14.4758 182.631C14.7949 181.31 16.0905 180.7 17.1734 180.97L23.6704 182.593C24.6887 180.279 27.5497 178.892 30.1485 179.541C32.7473 180.19 34.6509 182.767 34.4989 185.297ZM25.8361 183.134L32.3332 184.756C32.2192 183.327 30.916 182.067 29.6166 181.743C28.3172 181.418 26.5884 181.921 25.8361 183.134ZM15.5776 187.576L39.4002 193.524L32.0787 215.276C31.8128 216.377 30.5172 216.987 29.4343 216.717L13.8414 212.823C12.7585 212.553 12.105 211.456 12.1544 210.301L15.5776 187.576Z" fill="white"/>
</g>
<g opacity="0.3" clip-path="url(#clip13_30_505)">
<path d="M45.1205 228.28L50.0581 226.935C51.0456 226.666 51.8803 227.156 52.1449 228.16L52.5859 229.833L31.1899 235.662L30.7489 233.989C30.4843 232.985 31.1308 232.091 31.9538 231.867L36.8913 230.522C36.7354 228.592 38.1489 226.592 40.1239 226.054C42.0989 225.516 44.3063 226.529 45.1205 228.28ZM38.5372 230.073L43.4747 228.728C42.8809 227.814 41.5524 227.459 40.5649 227.728C39.5774 227.997 38.6017 228.98 38.5372 230.073ZM33.2768 236.887L51.3811 231.955L54.354 249.259C54.5745 250.095 53.9279 250.989 53.105 251.213L41.2549 254.441C40.432 254.665 39.5973 254.175 39.2122 253.384L33.2768 236.887Z" fill="white"/>
<rect x="28" y="228" width="335" height="467" fill="#D9D9D9"/>
</g>
<g opacity="0.3" clip-path="url(#clip14_30_505)">
<path d="M304.352 135.095L309.206 136.724C310.177 137.05 310.61 137.925 310.29 138.912L309.756 140.557L288.721 133.499L289.255 131.854C289.576 130.867 290.598 130.48 291.407 130.752L296.261 132.381C297.172 130.68 299.433 129.796 301.375 130.448C303.316 131.099 304.616 133.177 304.352 135.095ZM297.879 132.924L302.734 134.552C302.73 133.457 301.811 132.419 300.841 132.093C299.87 131.767 298.523 132.045 297.879 132.924ZM289.805 135.687L307.604 141.659L300.754 157.785C300.487 158.608 299.464 158.995 298.655 158.723L287.005 154.814C286.196 154.543 285.763 153.667 285.868 152.791L289.805 135.687Z" fill="white"/>
</g>
<g opacity="0.3" clip-path="url(#clip15_30_505)">
<path d="M98.1574 173.335L96.3962 172.616L96.5128 172.321C97.7357 169.227 101.226 167.741 104.304 168.998L106.065 169.718C109.143 170.976 110.651 174.505 109.428 177.598L109.311 177.893L107.55 177.173L107.667 176.879C108.503 174.762 107.472 172.347 105.366 171.487L103.605 170.767C101.499 169.907 99.1107 170.924 98.2739 173.041L98.1574 173.335ZM93.7028 174.255C93.9606 173.602 94.6947 173.29 95.343 173.555L109.432 179.312C110.082 179.577 110.398 180.319 110.14 180.971C109.882 181.623 109.149 181.936 108.5 181.671L108.313 181.594L104.388 189.107C103.906 189.959 102.914 190.346 102.011 189.977L93.4405 186.475C92.5397 186.107 92.0534 185.116 92.316 184.175L94.596 175.989L94.4107 175.914C93.7624 175.649 93.4449 174.907 93.7028 174.255Z" fill="white"/>
</g>
<g opacity="0.3" clip-path="url(#clip16_30_505)">
<path d="M127.405 109.561L124.495 110.354L124.366 109.866C123.019 104.753 126.056 99.4831 131.144 98.0971L134.055 97.3041C139.143 95.918 144.365 98.9378 145.713 104.051L145.841 104.538L142.93 105.331L142.802 104.844C141.88 101.346 138.306 99.2794 134.825 100.228L131.914 101.021C128.434 101.969 126.355 105.575 127.277 109.073L127.405 109.561ZM122.611 115.045C122.327 113.967 122.966 112.859 124.038 112.567L147.325 106.223C148.398 105.931 149.495 106.566 149.779 107.644C150.063 108.722 149.426 109.829 148.352 110.121L148.043 110.206L150.104 123.549C150.291 125.098 149.393 126.55 147.902 126.956L133.735 130.816C132.246 131.221 130.7 130.435 130.151 128.985L125.372 116.382L125.065 116.465C123.994 116.757 122.895 116.123 122.611 115.045Z" fill="white"/>
</g>
<path opacity="0.3" d="M230.027 186.233L228.112 185.824L228.178 185.503C228.874 182.138 232.157 179.991 235.505 180.707L237.421 181.117C240.77 181.833 242.923 185.142 242.227 188.507L242.161 188.828L240.245 188.418L240.311 188.098C240.788 185.795 239.314 183.531 237.023 183.041L235.107 182.631C232.816 182.141 230.57 183.61 230.094 185.913L230.027 186.233ZM225.665 187.979C225.812 187.27 226.502 186.819 227.208 186.97L242.534 190.247C243.24 190.398 243.692 191.094 243.546 191.803C243.399 192.513 242.71 192.964 242.003 192.813L241.8 192.769L239.139 201.117C238.8 202.07 237.86 202.643 236.879 202.433L227.555 200.439C226.575 200.23 225.907 199.312 226.007 198.308L226.878 189.578L226.677 189.535C225.972 189.385 225.518 188.689 225.665 187.979Z" fill="white"/>
<g opacity="0.3" clip-path="url(#clip17_30_505)">
<path d="M116.882 191.68L133.028 193.355C133.417 193.395 133.775 193.591 134.022 193.9C134.269 194.208 134.386 194.604 134.346 194.999L132.099 217.383C132.059 217.779 131.866 218.142 131.563 218.394C131.26 218.645 130.871 218.763 130.481 218.723L109.933 216.591C109.543 216.551 109.186 216.355 108.939 216.046C108.691 215.738 108.575 215.342 108.615 214.946L110.113 200.024L116.882 191.68ZM124.82 186.472L132.159 187.234C132.549 187.274 132.906 187.47 133.153 187.778C133.4 188.087 133.517 188.482 133.477 188.878L133.178 191.863L122.903 190.797L123.203 187.812C123.243 187.416 123.435 187.053 123.739 186.801C124.042 186.55 124.431 186.432 124.82 186.472ZM112.898 201.821L111.85 212.267L114.785 212.571L115.834 202.125L112.898 201.821Z" fill="white"/>
</g>
<g opacity="0.3" clip-path="url(#clip18_30_505)">
<path d="M266.129 174.435L289.755 172.017C290.325 171.959 290.894 172.133 291.337 172.501C291.78 172.869 292.062 173.402 292.119 173.981L295.362 206.735C295.419 207.314 295.248 207.892 294.886 208.343C294.523 208.794 294 209.08 293.43 209.138L263.361 212.215C262.792 212.273 262.223 212.099 261.779 211.731C261.336 211.363 261.055 210.83 260.997 210.251L258.835 188.415L266.129 174.435ZM276.004 164.601L286.742 163.502C287.312 163.444 287.881 163.618 288.325 163.986C288.768 164.355 289.049 164.887 289.106 165.466L289.539 169.833L274.504 171.372L274.072 167.005C274.015 166.426 274.186 165.847 274.548 165.396C274.91 164.946 275.434 164.66 276.004 164.601ZM263.347 190.159L264.861 205.445L269.156 205.005L267.643 189.72L263.347 190.159Z" fill="white"/>
</g>
<g opacity="0.3" clip-path="url(#clip19_30_505)">
<path d="M99.0676 117.672L104.756 112.142C104.893 112.009 105.077 111.937 105.266 111.941C105.456 111.945 105.636 112.026 105.768 112.165L113.185 120.052C113.316 120.191 113.387 120.378 113.383 120.571C113.379 120.763 113.299 120.947 113.162 121.08L105.922 128.118C105.785 128.252 105.602 128.324 105.412 128.32C105.222 128.316 105.042 128.235 104.911 128.095L99.966 122.838L99.0676 117.672ZM99.6752 113.056L102.261 110.542C102.398 110.409 102.582 110.336 102.771 110.341C102.961 110.345 103.141 110.426 103.272 110.565L104.261 111.617L100.642 115.136L99.6526 114.084C99.5214 113.945 99.4501 113.758 99.4544 113.565C99.4586 113.372 99.5381 113.189 99.6752 113.056ZM101.495 122.358L104.956 126.038L105.99 125.033L102.529 121.353L101.495 122.358Z" fill="white"/>
</g>
<g opacity="0.3" clip-path="url(#clip20_30_505)">
<path d="M184.672 196.923L185.132 199.378L175.47 201.25L175.01 198.794L177.426 198.326L177.195 197.098L169.949 198.501L170.409 200.957L167.993 201.425L166.153 191.602L168.568 191.134L169.029 193.59L178.691 191.719C179.331 191.594 179.994 191.734 180.534 192.107C181.073 192.48 181.444 193.055 181.566 193.707L182.257 197.39L184.672 196.923ZM178.806 205.693L179.496 209.377C179.618 210.029 179.99 210.604 180.529 210.977C181.068 211.35 181.731 211.489 182.372 211.365L192.034 209.494L192.494 211.95L194.91 211.482L193.069 201.659L190.654 202.127L191.114 204.582L183.867 205.986L183.637 204.758L186.053 204.29L185.592 201.834L175.93 203.705L176.39 206.161L178.806 205.693Z" fill="white"/>
</g>
<g opacity="0.3" clip-path="url(#clip21_30_505)">
<path d="M246.213 151.709L245.035 154.626L233.559 149.834L234.737 146.917L237.606 148.115L238.195 146.657L229.588 143.063L228.41 145.98L225.541 144.782L230.254 133.115L233.123 134.313L231.945 137.229L243.421 142.021C244.182 142.339 244.787 142.951 245.104 143.723C245.421 144.494 245.424 145.362 245.111 146.136L243.344 150.511L246.213 151.709ZM234.071 156.866L232.304 161.241C231.991 162.015 231.994 162.883 232.311 163.654C232.628 164.426 233.234 165.038 233.994 165.356L245.47 170.147L244.292 173.064L247.161 174.262L251.874 162.595L249.005 161.397L247.827 164.314L239.22 160.72L239.809 159.262L242.678 160.46L243.856 157.543L232.381 152.751L231.202 155.668L234.071 156.866Z" fill="white"/>
</g>
<g opacity="0.3" clip-path="url(#clip22_30_505)">
<path d="M314.971 180.398L313.366 179.153L318.264 172.623L319.87 173.868L318.645 175.5L319.448 176.123L323.122 171.225L321.516 169.98L322.741 168.348L329.164 173.328L327.939 174.96L326.333 173.715L321.435 180.245C321.11 180.678 320.629 180.962 320.099 181.035C319.568 181.108 319.03 180.963 318.605 180.633L316.196 178.765L314.971 180.398ZM313.828 171.765L311.419 169.898C310.993 169.567 310.456 169.423 309.925 169.495C309.394 169.568 308.914 169.852 308.589 170.285L303.691 176.815L302.085 175.57L300.86 177.203L307.283 182.183L308.508 180.55L306.902 179.305L310.576 174.408L311.379 175.03L310.154 176.663L311.76 177.908L316.658 171.378L315.052 170.133L313.828 171.765Z" fill="white"/>
</g>
<g opacity="0.3" clip-path="url(#clip23_30_505)">
<path d="M217.696 97.5928L223.901 121.137L205.196 126.233C204.487 126.426 203.732 126.325 203.097 125.952C202.462 125.579 201.998 124.964 201.808 124.244C201.618 123.523 201.718 122.756 202.084 122.11C202.451 121.464 203.055 120.992 203.764 120.799L220.688 116.189L214.96 94.4558L197.146 99.3087C195.186 99.8425 194.012 101.909 194.537 103.901L200.265 125.635C200.79 127.627 202.823 128.82 204.783 128.286L226.16 122.463L219.477 97.1075L217.696 97.5928Z" fill="white"/>
<path d="M204.243 122.61L204.242 122.611C204.005 122.675 203.804 122.832 203.682 123.047C203.559 123.263 203.526 123.519 203.589 123.759C203.653 123.999 203.807 124.204 204.019 124.328C204.231 124.452 204.483 124.486 204.719 124.422L221.64 119.812L221.163 118.001L204.243 122.61Z" fill="white"/>
</g>
<g opacity="0.3" clip-path="url(#clip24_30_505)">
<path d="M190.481 171.766C189.596 171.911 188.803 172.408 188.278 173.147C187.753 173.886 187.539 174.807 187.681 175.707L189.345 186.197C189.487 187.097 189.976 187.902 190.703 188.436C191.43 188.97 192.336 189.188 193.221 189.043L210.821 186.158C211.707 186.013 212.499 185.516 213.024 184.777C213.549 184.038 213.764 183.117 213.621 182.217L211.958 171.728C211.815 170.828 211.326 170.022 210.599 169.488C209.873 168.955 208.967 168.736 208.081 168.881L190.481 171.766ZM193.965 191.77C193.926 191.525 193.984 191.274 194.128 191.072C194.271 190.87 194.487 190.735 194.728 190.695L209.901 188.208C210.142 188.169 210.389 188.228 210.588 188.374C210.786 188.519 210.919 188.739 210.958 188.985C210.997 189.23 210.939 189.481 210.795 189.683C210.652 189.884 210.436 190.02 210.195 190.059L195.022 192.546C194.78 192.586 194.533 192.526 194.335 192.381C194.137 192.235 194.004 192.016 193.965 191.77Z" fill="white"/>
</g>
<g opacity="0.3" clip-path="url(#clip25_30_505)">
<path d="M293.978 100.802L280.089 96.8556C279.349 96.6454 278.556 96.7429 277.886 97.1266C277.216 97.5103 276.723 98.1488 276.515 98.9018L271.296 117.888C270.864 119.456 271.766 121.082 273.308 121.522L287.197 125.468C287.937 125.679 288.73 125.581 289.401 125.198C290.071 124.814 290.564 124.175 290.771 123.422L295.991 104.435C296.196 103.682 296.1 102.876 295.722 102.195C295.345 101.514 294.718 101.013 293.978 100.801L293.978 100.802ZM289.163 118.761L275.039 114.747L278.113 103.568L292.237 107.582L289.163 118.761ZM280.478 95.8953L294.139 99.7772C294.314 99.8259 294.501 99.8025 294.659 99.7121C294.818 99.6217 294.935 99.4715 294.985 99.2941L295.995 95.6207C296.042 95.4426 296.019 95.2527 295.93 95.0919C295.841 94.931 295.694 94.8121 295.519 94.7608L281.859 90.8789C281.684 90.8309 281.497 90.8546 281.339 90.9449C281.181 91.0352 281.064 91.185 281.013 91.362L280.003 95.0367C279.901 95.4074 280.114 95.7917 280.478 95.8953L280.481 95.896L280.478 95.8953Z" fill="white"/>
</g>
<g opacity="0.3" clip-path="url(#clip26_30_505)">
<path d="M377.664 232.385L364.385 228.523C363.677 228.317 362.917 228.406 362.273 228.769C361.629 229.133 361.153 229.741 360.95 230.461L355.842 248.614C355.421 250.113 356.275 251.676 357.749 252.106L371.028 255.968C371.736 256.174 372.496 256.085 373.14 255.722C373.784 255.358 374.26 254.749 374.463 254.029L379.571 235.876C379.772 235.156 379.684 234.384 379.326 233.729C378.969 233.075 378.371 232.591 377.664 232.384L377.664 232.385ZM372.949 249.555L359.446 245.628L362.453 234.94L375.958 238.868L372.949 249.555ZM364.763 227.605L377.824 231.404C377.991 231.452 378.17 231.43 378.322 231.345C378.475 231.259 378.587 231.116 378.637 230.946L379.625 227.434C379.671 227.264 379.65 227.082 379.566 226.927C379.482 226.773 379.341 226.658 379.175 226.608L366.114 222.809C365.946 222.762 365.767 222.784 365.615 222.869C365.463 222.955 365.35 223.098 365.301 223.267L364.312 226.78C364.212 227.135 364.414 227.504 364.763 227.605L364.765 227.606L364.763 227.605Z" fill="white"/>
</g>
<path opacity="0.3" d="M359.888 186.502L356.904 187.662L356.716 187.163C354.743 181.921 357.378 176.026 362.593 173.997L365.577 172.836C370.793 170.807 376.625 173.409 378.598 178.651L378.786 179.15L375.802 180.311L375.614 179.812C374.264 176.225 370.273 174.445 366.705 175.833L363.721 176.994C360.153 178.382 358.35 182.416 359.7 186.002L359.888 186.502ZM355.424 192.819C355.008 191.714 355.563 190.475 356.661 190.047L380.532 180.761C381.632 180.333 382.857 180.88 383.273 181.986C383.689 183.091 383.136 184.329 382.036 184.757L381.719 184.881L385.331 198.721C385.696 200.333 384.906 201.965 383.376 202.559L368.855 208.208C367.329 208.802 365.614 208.145 364.878 206.677L358.479 193.921L358.165 194.043C357.067 194.47 355.84 193.924 355.424 192.819Z" fill="white"/>
<path opacity="0.3" d="M82.1222 160C82.1222 161.389 81.0171 162.5 79.6714 162.5C78.3256 162.5 77.2206 161.389 77.2206 160C77.2206 158.611 78.3256 157.5 79.6714 157.5C81.0171 157.5 82.1222 158.611 82.1222 160Z" stroke="white"/>
<path opacity="0.3" d="M139.171 142C139.171 143.389 138.066 144.5 136.72 144.5C135.374 144.5 134.269 143.389 134.269 142C134.269 140.611 135.374 139.5 136.72 139.5C138.066 139.5 139.171 140.611 139.171 142Z" stroke="white"/>
<path opacity="0.3" d="M150.974 202.5C150.974 203.612 150.089 204.5 149.015 204.5C147.941 204.5 147.056 203.612 147.056 202.5C147.056 201.388 147.941 200.5 149.015 200.5C150.089 200.5 150.974 201.388 150.974 202.5Z" stroke="white"/>
<path opacity="0.3" d="M333.923 118C333.923 119.389 332.818 120.5 331.472 120.5C330.127 120.5 329.021 119.389 329.021 118C329.021 116.611 330.127 115.5 331.472 115.5C332.818 115.5 333.923 116.611 333.923 118Z" stroke="white"/>
<path opacity="0.3" d="M30.9751 120C30.9751 121.941 29.4297 123.5 27.5407 123.5C25.6517 123.5 24.1063 121.941 24.1063 120C24.1063 118.059 25.6517 116.5 27.5407 116.5C29.4297 116.5 30.9751 118.059 30.9751 120Z" stroke="white"/>
<path opacity="0.3" d="M22.1227 243C22.1227 244.941 20.5773 246.5 18.6883 246.5C16.7993 246.5 15.2539 244.941 15.2539 243C15.2539 241.059 16.7993 239.5 18.6883 239.5C20.5773 239.5 22.1227 241.059 22.1227 243Z" stroke="white"/>
<path opacity="0.3" d="M222.776 160C222.776 161.389 221.671 162.5 220.326 162.5C218.98 162.5 217.875 161.389 217.875 160C217.875 158.611 218.98 157.5 220.326 157.5C221.671 157.5 222.776 158.611 222.776 160Z" stroke="white"/>
<path opacity="0.3" d="M239.498 104C239.498 105.389 238.393 106.5 237.047 106.5C235.701 106.5 234.596 105.389 234.596 104C234.596 102.611 235.701 101.5 237.047 101.5C238.393 101.5 239.498 102.611 239.498 104Z" stroke="white"/>
<path opacity="0.3" d="M310.317 195C310.317 196.389 309.212 197.5 307.866 197.5C306.52 197.5 305.415 196.389 305.415 195C305.415 193.611 306.52 192.5 307.866 192.5C309.212 192.5 310.317 193.611 310.317 195Z" stroke="white"/>
<path opacity="0.3" d="M353.595 231C353.595 232.389 352.49 233.5 351.144 233.5C349.798 233.5 348.693 232.389 348.693 231C348.693 229.611 349.798 228.5 351.144 228.5C352.49 228.5 353.595 229.611 353.595 231Z" stroke="white"/>
</g>
<rect width="393" height="287" fill="url(#paint1_linear_30_505)"/>
<defs>
<linearGradient id="paint0_linear_30_505" x1="0" y1="0" x2="436.281" y2="184.849" gradientUnits="userSpaceOnUse">
<stop stop-color="#53E88B"/>
<stop offset="1" stop-color="#1DB954"/>
</linearGradient>
<linearGradient id="paint1_linear_30_505" x1="0" y1="0" x2="385.406" y2="296.86" gradientUnits="userSpaceOnUse">
<stop stop-color="#53E88B"/>
<stop offset="0.504051" stop-color="#1DB954" stop-opacity="0.8"/>
<stop offset="1" stop-color="#1DB954" stop-opacity="0.7"/>
</linearGradient>
<clipPath id="clip0_30_505">
<rect width="23.0368" height="22.7193" fill="white" transform="matrix(0.279425 -0.960167 0.957614 0.288055 299.997 127.119)"/>
</clipPath>
<clipPath id="clip1_30_505">
<rect width="25.0015" height="40.0455" fill="white" transform="matrix(0.724061 -0.689736 0.677694 0.735344 119.999 167.244)"/>
</clipPath>
<clipPath id="clip2_30_505">
<rect width="36.6992" height="59.5758" fill="white" transform="matrix(0.967532 0.252748 -0.245026 0.969517 321.48 180)"/>
</clipPath>
<clipPath id="clip3_30_505">
<rect width="27.1413" height="43.7878" fill="white" transform="matrix(0.862837 0.505483 -0.493085 0.869981 71.7546 101)"/>
</clipPath>
<clipPath id="clip4_30_505">
<rect width="24.4094" height="24.6121" fill="white" transform="matrix(0.862408 -0.506215 0.493811 0.869569 29.5079 102.356)"/>
</clipPath>
<clipPath id="clip5_30_505">
<rect width="39.0701" height="39.3338" fill="white" transform="matrix(0.834507 0.550997 -0.538326 0.842737 164.78 120)"/>
</clipPath>
<clipPath id="clip6_30_505">
<rect width="35.6573" height="35.8595" fill="white" transform="matrix(0.814621 -0.579994 0.567264 0.823536 313.164 145.068)"/>
</clipPath>
<clipPath id="clip7_30_505">
<rect width="58.8539" height="58.0127" fill="white" transform="matrix(0.25053 -0.968109 0.966038 0.258402 30.4915 204.977)"/>
</clipPath>
<clipPath id="clip8_30_505">
<rect width="58.9116" height="57.9541" fill="white" transform="matrix(-0.0669825 -0.997754 0.997601 -0.0692246 335.185 150.554)"/>
</clipPath>
<clipPath id="clip9_30_505">
<rect width="24.0094" height="24.4092" fill="white" transform="matrix(0.99962 -0.0275598 0.0266637 0.999645 255.735 131.555)"/>
</clipPath>
<clipPath id="clip10_30_505">
<rect width="20.6788" height="16.9815" fill="white" transform="matrix(0.96484 0.262839 -0.254852 0.96698 162.687 99)"/>
</clipPath>
<clipPath id="clip11_30_505">
<rect width="31.3635" height="25.3564" fill="white" transform="matrix(0.901885 -0.431975 0.420439 0.907321 88.5237 141.548)"/>
</clipPath>
<clipPath id="clip12_30_505">
<rect width="20.9805" height="17.0561" fill="white" transform="matrix(0.992481 -0.122401 0.118476 0.992957 240.981 113.568)"/>
</clipPath>
<clipPath id="clip13_30_505">
<rect width="34.1165" height="34.6087" fill="white" transform="matrix(0.96484 -0.262839 0.254852 0.96698 23.6063 226.967)"/>
</clipPath>
<clipPath id="clip14_30_505">
<rect width="34.1344" height="34.591" fill="white" transform="matrix(0.948055 0.318107 -0.308758 0.951141 287.071 122)"/>
</clipPath>
<clipPath id="clip15_30_505">
<rect width="17.7565" height="20.2884" fill="white" transform="matrix(0.925703 0.378252 -0.367632 0.929971 96.9659 166)"/>
</clipPath>
<clipPath id="clip16_30_505">
<rect width="28.1583" height="32.2503" fill="white" transform="matrix(0.96484 -0.262839 0.254852 0.96698 119.015 101.401)"/>
</clipPath>
<clipPath id="clip17_30_505">
<rect width="35.4156" height="35.994" fill="white" transform="matrix(0.99466 0.103205 -0.0998809 0.994999 105.889 183)"/>
</clipPath>
<clipPath id="clip18_30_505">
<rect width="51.8159" height="52.6625" fill="white" transform="matrix(0.994805 -0.101803 0.0985233 0.995135 247.866 165.275)"/>
</clipPath>
<clipPath id="clip19_30_505">
<rect width="17.3093" height="17.3221" fill="white" transform="matrix(0.717012 -0.697061 0.68512 0.72843 92.4581 119.066)"/>
</clipPath>
<clipPath id="clip20_30_505">
<rect width="29.5253" height="29.9829" fill="white" transform="matrix(0.981759 -0.190131 0.184158 0.982897 163.277 189.614)"/>
</clipPath>
<clipPath id="clip21_30_505">
<rect width="37.3083" height="37.7498" fill="white" transform="matrix(0.922788 0.385308 -0.374555 0.927205 228.563 129)"/>
</clipPath>
<clipPath id="clip22_30_505">
<rect width="24.4893" height="24.3824" fill="white" transform="matrix(-0.600062 0.799953 -0.790281 -0.612744 331.994 172.94)"/>
</clipPath>
<clipPath id="clip23_30_505">
<rect width="29.5411" height="29.9673" fill="white" transform="matrix(0.96484 -0.262839 0.254852 0.96698 191.801 100.765)"/>
</clipPath>
<clipPath id="clip24_30_505">
<rect width="29.5205" height="29.9876" fill="white" transform="matrix(0.986831 -0.161757 0.156625 0.987658 183.933 167.775)"/>
</clipPath>
<clipPath id="clip25_30_505">
<rect width="19.6046" height="31.8141" fill="white" transform="matrix(0.961916 0.273344 -0.265085 0.964225 278.948 90.0518)"/>
</clipPath>
<clipPath id="clip26_30_505">
<rect width="18.7771" height="30.4681" fill="white" transform="matrix(0.960214 0.279266 -0.270857 0.96262 363.331 222)"/>
</clipPath>
</defs>
</svg>
