<svg width="201" height="181" viewBox="0 0 201 181" fill="none" xmlns="http://www.w3.org/2000/svg">
<g clip-path="url(#clip0_39_462)">
<path d="M199.237 69.2181C199.165 69.2181 199.094 69.196 199.035 69.1547L101.512 1.02305C101.215 0.816675 100.862 0.706386 100.501 0.707004C100.14 0.707621 99.788 0.819115 99.4919 1.0265L2.67095 69.154C2.59437 69.2079 2.49959 69.229 2.40746 69.2128C2.31533 69.1966 2.23339 69.1443 2.17967 69.0675C2.12596 68.9907 2.10486 68.8956 2.12103 68.8032C2.1372 68.7107 2.18931 68.6285 2.26589 68.5747L99.0869 0.447182C99.5014 0.156885 99.9947 0.000836816 100.5 3.35617e-06C101.006 -0.000830103 101.499 0.15359 101.915 0.442519L199.438 68.574C199.5 68.617 199.546 68.6787 199.571 68.75C199.595 68.8213 199.596 68.8985 199.573 68.9703C199.551 69.0422 199.506 69.105 199.445 69.1495C199.385 69.1941 199.312 69.2181 199.237 69.2181Z" fill="#3F3D56"/>
<path d="M8.20361 71.6331L100.597 2.94278L193.692 76.5208L105.358 129.051L57.3999 118.085L8.20361 71.6331Z" fill="#E6E6E6"/>
<path d="M61.4479 161.497L15.8032 161.497C15.5229 161.497 15.2453 161.442 14.9863 161.335C14.7272 161.228 14.4918 161.07 14.2935 160.871C14.0952 160.673 13.9379 160.437 13.8306 160.177C13.7232 159.917 13.668 159.639 13.668 159.358C13.668 159.077 13.7232 158.798 13.8306 158.538C13.9379 158.279 14.0952 158.043 14.2935 157.844C14.4918 157.645 14.7272 157.488 14.9863 157.381C15.2453 157.273 15.5229 157.218 15.8032 157.219L61.4479 157.219C61.7282 157.218 62.0058 157.273 62.2649 157.381C62.5239 157.488 62.7593 157.645 62.9576 157.844C63.1559 158.043 63.3133 158.279 63.4206 158.538C63.5279 158.798 63.5832 159.077 63.5832 159.358C63.5832 159.639 63.5279 159.917 63.4206 160.177C63.3133 160.437 63.1559 160.673 62.9576 160.871C62.7593 161.07 62.5239 161.228 62.2649 161.335C62.0058 161.442 61.7282 161.497 61.4479 161.497Z" fill="#025635"/>
<path d="M32.1795 152.3L15.8032 152.3C15.5229 152.3 15.2453 152.245 14.9863 152.138C14.7272 152.03 14.4918 151.873 14.2935 151.674C14.0952 151.475 13.9379 151.24 13.8306 150.98C13.7232 150.72 13.668 150.442 13.668 150.161C13.668 149.879 13.7232 149.601 13.8306 149.341C13.9379 149.082 14.0952 148.846 14.2935 148.647C14.4918 148.448 14.7272 148.291 14.9863 148.183C15.2453 148.076 15.5229 148.021 15.8032 148.021L32.1795 148.021C32.4598 148.021 32.7374 148.076 32.9964 148.183C33.2555 148.291 33.4909 148.448 33.6892 148.647C33.8875 148.846 34.0448 149.082 34.1522 149.341C34.2595 149.601 34.3148 149.879 34.3148 150.161C34.3148 150.442 34.2595 150.72 34.1522 150.98C34.0448 151.24 33.8875 151.475 33.6892 151.674C33.4909 151.873 33.2555 152.03 32.9964 152.138C32.7374 152.245 32.4598 152.3 32.1795 152.3Z" fill="#025635"/>
<path d="M101.896 109.893C101.549 109.893 101.206 109.826 100.885 109.694L43.9026 85.9761L43.9026 11.7352C43.9034 11.0787 44.1637 10.4493 44.6264 9.98514C45.0892 9.52093 45.7166 9.2598 46.371 9.25903L155.687 9.25903C156.341 9.2598 156.969 9.52093 157.431 9.98514C157.894 10.4493 158.154 11.0787 158.155 11.7352L158.155 86.0279L158.048 86.0739L102.939 109.682C102.609 109.822 102.254 109.893 101.896 109.893Z" fill="white"/>
<path d="M101.896 110.069C101.526 110.07 101.16 109.998 100.817 109.858L43.7263 86.0942L43.7263 11.7352C43.7271 11.0318 44.006 10.3575 44.5018 9.86009C44.9976 9.36272 45.6699 9.08295 46.3711 9.08215L155.687 9.08215C156.388 9.08295 157.06 9.36272 157.556 9.86009C158.052 10.3575 158.331 11.0318 158.332 11.7352L158.332 86.1447L103.008 109.845C102.656 109.993 102.278 110.07 101.896 110.069ZM44.4316 85.6217L101.086 109.204C101.615 109.419 102.207 109.415 102.733 109.194L157.626 85.6776L157.626 11.7352C157.626 11.2194 157.421 10.7249 157.058 10.3602C156.694 9.99542 156.201 9.79025 155.687 9.78963L46.3711 9.78963C45.8569 9.79025 45.3639 9.99542 45.0003 10.3602C44.6367 10.7249 44.4322 11.2194 44.4316 11.7352L44.4316 85.6217Z" fill="#3F3D56"/>
<path d="M198.532 68.5106L198.461 68.5106L157.979 85.8509L102.591 109.576C102.375 109.668 102.142 109.715 101.908 109.716C101.673 109.718 101.44 109.672 101.223 109.583L44.0789 85.8014L2.60238 68.5389L2.53902 68.5106L2.46842 68.5106C1.81398 68.5113 1.18655 68.7724 0.723784 69.2366C0.261022 69.7009 0.00072615 70.3303 -9.42562e-09 70.9868L-4.18767e-07 178.524C0.000726667 179.18 0.261022 179.81 0.723783 180.274C1.18654 180.738 1.81398 180.999 2.46842 181L198.532 181C199.186 180.999 199.813 180.738 200.276 180.274C200.739 179.81 200.999 179.18 201 178.524L201 70.9868C200.999 70.3303 200.739 69.7009 200.276 69.2366C199.813 68.7724 199.186 68.5113 198.532 68.5106ZM200.295 178.524C200.295 178.993 200.109 179.443 199.778 179.774C199.447 180.106 198.999 180.292 198.532 180.293L2.46842 180.293C2.00086 180.292 1.5525 180.106 1.22189 179.774C0.891272 179.443 0.70545 178.993 0.705263 178.524L0.705263 70.9868C0.705903 70.5294 0.882764 70.09 1.19887 69.7603C1.51498 69.4307 1.94586 69.2364 2.40144 69.2181L44.0789 86.5655L100.951 110.238C101.567 110.489 102.257 110.485 102.87 110.227L157.979 86.6186L198.602 69.2181C199.057 69.2378 199.487 69.4326 199.802 69.762C200.117 70.0915 200.294 70.5301 200.295 70.9868L200.295 178.524Z" fill="#3F3D56"/>
<path d="M101.327 88.8408C99.2232 88.8448 97.1754 88.1624 95.4923 86.8966L95.3879 86.818L73.4151 69.942C72.3975 69.1598 71.5434 68.1843 70.9016 67.071C70.2599 65.9578 69.843 64.7286 69.6747 63.4537C69.5065 62.1788 69.5903 60.8832 69.9212 59.6408C70.2521 58.3984 70.8237 57.2335 71.6034 56.2127C72.3831 55.1919 73.3556 54.3352 74.4654 53.6914C75.5751 53.0476 76.8004 52.6294 78.0713 52.4606C79.3422 52.2919 80.6338 52.3759 81.8723 52.7078C83.1108 53.0398 84.272 53.6132 85.2896 54.3953L99.522 65.3428L133.155 21.3422C133.935 20.3217 134.908 19.4653 136.018 18.8218C137.128 18.1784 138.353 17.7607 139.624 17.5924C140.895 17.4241 142.187 17.5085 143.425 17.841C144.664 18.1734 145.825 18.7473 146.842 19.5298L146.633 19.8146L146.847 19.534C148.9 21.1161 150.242 23.4502 150.581 26.0242C150.92 28.5981 150.227 31.2018 148.654 33.2639L109.093 85.0191C108.178 86.2117 107.002 87.1769 105.655 87.8396C104.308 88.5024 102.827 88.845 101.327 88.8408Z" fill="#025635"/>
</g>
<defs>
<clipPath id="clip0_39_462">
<rect width="201" height="181" fill="white"/>
</clipPath>
</defs>
</svg>
